<?xml version="1.0" encoding="UTF-8" standalone="no"?>
<svg
   width="500"
   zoomAndPan="magnify"
   viewBox="0 0 375 374.999991"
   height="500"
   preserveAspectRatio="xMidYMid meet"
   version="1.0"
   id="svg110"
   sodipodi:docname="graville-law-logo.svg"
   inkscape:version="1.4.2 (ebf0e940d0, 2025-05-08)"
   xmlns:inkscape="http://www.inkscape.org/namespaces/inkscape"
   xmlns:sodipodi="http://sodipodi.sourceforge.net/DTD/sodipodi-0.dtd"
   xmlns="http://www.w3.org/2000/svg"
   xmlns:svg="http://www.w3.org/2000/svg">
  <sodipodi:namedview
     id="namedview110"
     pagecolor="#ffffff"
     bordercolor="#000000"
     borderopacity="0.25"
     inkscape:showpageshadow="2"
     inkscape:pageopacity="0.0"
     inkscape:pagecheckerboard="0"
     inkscape:deskcolor="#d1d1d1"
     inkscape:zoom="0.75741687"
     inkscape:cx="241.61067"
     inkscape:cy="443.61304"
     inkscape:window-width="2878"
     inkscape:window-height="1878"
     inkscape:window-x="0"
     inkscape:window-y="40"
     inkscape:window-maximized="1"
     inkscape:current-layer="svg110" />
  <defs
     id="defs1">
    <g
       id="g1" />
  </defs>
  <rect
     style="fill:#ffffff;stroke-width:0.752406;fill-opacity:1"
     id="rect1"
     width="375"
     height="375"
     x="0"
     y="1.110223e-16" />
  <g
     id="g112"
     inkscape:label="Logo">
    <path
       stroke-linecap="butt"
       transform="matrix(0.504426, -0.553505, 0.553505, 0.504426, 148.62149, 168.266679)"
       fill="none"
       stroke-linejoin="miter"
       d="M 0.00226029 0.99936 L 156.243955 0.999653 "
       stroke="#3d3b3a"
       stroke-width="2"
       stroke-opacity="1"
       stroke-miterlimit="4"
       id="path2" />
    <g
       fill="#000000"
       fill-opacity="1"
       id="g5">
      <g
         transform="translate(110.854677, 123.259339)"
         id="g4">
        <g
           id="g3">
          <path
             d="M 78.300781 -35.011719 L 70.828125 -35.011719 L 70.828125 -19.890625 C 70.828125 -16.769531 70.890625 -13.710938 71.011719 -10.710938 C 71.128906 -7.710938 71.398438 -4.140625 71.820312 0 L 67.859375 0 C 68.339844 -4.140625 68.625 -7.710938 68.714844 -10.710938 C 68.804688 -13.710938 68.851562 -16.769531 68.851562 -19.890625 L 68.851562 -24.570312 C 67.171875 -16.410156 63.976562 -9.976562 59.265625 -5.265625 C 54.554688 -0.554688 48.148438 1.800781 40.050781 1.800781 C 34.769531 1.800781 30 0.824219 25.738281 -1.125 C 21.480469 -3.074219 17.835938 -5.804688 14.804688 -9.316406 C 11.773438 -12.824219 9.449219 -16.933594 7.828125 -21.644531 C 6.210938 -26.355469 5.398438 -31.441406 5.398438 -36.898438 C 5.398438 -42.359375 6.316406 -47.355469 8.144531 -51.886719 C 9.976562 -56.414062 12.511719 -60.316406 15.75 -63.585938 C 18.988281 -66.855469 22.769531 -69.375 27.089844 -71.144531 C 31.410156 -72.914062 36.058594 -73.800781 41.039062 -73.800781 C 48.058594 -73.800781 53.96875 -72.089844 58.769531 -68.671875 C 63.570312 -65.25 67.5 -60.601562 70.558594 -54.71875 L 61.46875 -52.289062 C 60.570312 -55.949219 59.25 -59.296875 57.511719 -62.324219 C 55.769531 -65.355469 53.550781 -67.785156 50.851562 -69.613281 C 48.148438 -71.445312 44.878906 -72.359375 41.039062 -72.359375 C 37.078125 -72.359375 33.496094 -71.460938 30.285156 -69.660156 C 27.074219 -67.859375 24.34375 -65.355469 22.09375 -62.144531 C 19.84375 -58.933594 18.121094 -55.214844 16.921875 -50.984375 C 15.71875 -46.753906 15.121094 -42.238281 15.121094 -37.441406 C 15.121094 -32.519531 15.703125 -27.886719 16.875 -23.535156 C 18.046875 -19.183594 19.785156 -15.34375 22.09375 -12.015625 C 24.40625 -8.683594 27.253906 -6.058594 30.644531 -4.140625 C 34.035156 -2.21875 37.949219 -1.261719 42.390625 -1.261719 C 47.789062 -1.261719 52.394531 -2.609375 56.203125 -5.308594 C 60.015625 -8.011719 63 -11.894531 65.160156 -16.964844 C 67.320312 -22.035156 68.550781 -28.050781 68.851562 -35.011719 L 65.609375 -35.011719 C 64.289062 -35.011719 62.503906 -34.921875 60.253906 -34.738281 C 58.003906 -34.558594 55.546875 -34.214844 52.875 -33.703125 C 50.203125 -33.195312 47.578125 -32.429688 45 -31.410156 L 41.039062 -36.449219 L 78.300781 -36.449219 Z M 78.300781 -35.011719 "
             id="path3" />
        </g>
      </g>
    </g>
    <g
       fill="#000000"
       fill-opacity="1"
       id="g8">
      <g
         transform="translate(192.319444, 193.5253)"
         id="g7">
        <g
           id="g6">
          <path
             d="M 6.480469 -72 L 16.738281 -72 C 16.558594 -69.480469 16.410156 -67.304688 16.289062 -65.476562 C 16.171875 -63.644531 16.09375 -61.875 16.066406 -60.164062 C 16.035156 -58.453125 16.019531 -56.488281 16.019531 -54.269531 L 16.019531 -1.441406 L 23.578125 -1.441406 C 26.578125 -1.441406 29.339844 -1.515625 31.859375 -1.664062 C 34.378906 -1.816406 36.976562 -2.144531 39.644531 -2.65625 C 42.316406 -3.164062 45.328125 -3.898438 48.691406 -4.859375 L 46.078125 0 L 6.300781 0 C 6.539062 -2.519531 6.71875 -4.695312 6.839844 -6.523438 C 6.960938 -8.355469 7.050781 -10.140625 7.109375 -11.878906 C 7.171875 -13.621094 7.199219 -15.570312 7.199219 -17.730469 L 7.199219 -54.269531 C 7.199219 -56.488281 7.183594 -58.453125 7.15625 -60.164062 C 7.125 -61.875 7.050781 -63.644531 6.929688 -65.476562 C 6.808594 -67.304688 6.660156 -69.480469 6.480469 -72 Z M 6.480469 -72 "
             id="path5" />
        </g>
      </g>
    </g>
  </g>
  <g
     fill="#3d3b3a"
     fill-opacity="1"
     id="g35">
    <g
       transform="translate(245.776981, 250.520859)"
       id="g34">
      <g
         id="g33" />
    </g>
  </g>
  <g
     fill="#3d3b3a"
     fill-opacity="1"
     id="g74">
    <g
       transform="translate(159.577276, 283.100489)"
       id="g73">
      <g
         id="g72" />
    </g>
  </g>
  <g
     fill="#3d3b3a"
     fill-opacity="1"
     id="g80">
    <g
       transform="translate(196.346534, 283.100489)"
       id="g79">
      <g
         id="g78" />
    </g>
  </g>
  <g
     id="g113"
     inkscape:label="Text">
    <g
       fill="#3d3b3a"
       fill-opacity="1"
       id="g11">
      <g
         transform="translate(21.692385, 250.520859)"
         id="g10">
        <g
           id="g9">
          <path
             d="M 18.234375 -10.511719 L 20.367188 -10.511719 L 20.367188 -2.492188 C 19.382812 -1.632812 18.222656 -0.972656 16.882812 -0.511719 C 15.539062 -0.0507812 14.128906 0.179688 12.644531 0.179688 C 10.542969 0.179688 8.652344 -0.28125 6.96875 -1.203125 C 5.285156 -2.121094 3.964844 -3.398438 3.003906 -5.03125 C 2.042969 -6.664062 1.5625 -8.492188 1.5625 -10.511719 C 1.5625 -12.535156 2.042969 -14.363281 3.003906 -15.996094 C 3.964844 -17.628906 5.285156 -18.902344 6.96875 -19.824219 C 8.652344 -20.746094 10.554688 -21.207031 12.675781 -21.207031 C 14.277344 -21.207031 15.75 -20.949219 17.089844 -20.441406 C 18.433594 -19.929688 19.5625 -19.175781 20.484375 -18.171875 L 19.105469 -16.761719 C 17.441406 -18.402344 15.328125 -19.222656 12.765625 -19.222656 C 11.0625 -19.222656 9.527344 -18.847656 8.15625 -18.097656 C 6.785156 -17.347656 5.707031 -16.304688 4.925781 -14.972656 C 4.144531 -13.640625 3.753906 -12.15625 3.753906 -10.511719 C 3.753906 -8.871094 4.144531 -7.390625 4.925781 -6.066406 C 5.707031 -4.746094 6.777344 -3.703125 8.140625 -2.945312 C 9.5 -2.183594 11.035156 -1.800781 12.734375 -1.800781 C 14.898438 -1.800781 16.730469 -2.34375 18.234375 -3.425781 Z M 18.234375 -10.511719 "
             id="path8" />
        </g>
      </g>
    </g>
    <g
       fill="#3d3b3a"
       fill-opacity="1"
       id="g14">
      <g
         transform="translate(53.922906, 250.520859)"
         id="g13">
        <g
           id="g12">
          <path
             d="M 17.78125 0 L 12.976562 -6.757812 C 12.433594 -6.699219 11.875 -6.667969 11.292969 -6.667969 L 5.648438 -6.667969 L 5.648438 0 L 3.425781 0 L 3.425781 -21.027344 L 11.292969 -21.027344 C 13.976562 -21.027344 16.078125 -20.386719 17.601562 -19.105469 C 19.125 -17.820312 19.886719 -16.058594 19.886719 -13.816406 C 19.886719 -12.175781 19.46875 -10.789062 18.636719 -9.65625 C 17.808594 -8.527344 16.621094 -7.710938 15.078125 -7.210938 L 20.214844 0 Z M 11.234375 -8.5625 C 13.316406 -8.5625 14.910156 -9.019531 16.011719 -9.941406 C 17.113281 -10.863281 17.660156 -12.15625 17.660156 -13.816406 C 17.660156 -15.519531 17.113281 -16.824219 16.011719 -17.738281 C 14.910156 -18.648438 13.316406 -19.105469 11.234375 -19.105469 L 5.648438 -19.105469 L 5.648438 -8.5625 Z M 11.234375 -8.5625 "
             id="path11" />
        </g>
      </g>
    </g>
    <g
       fill="#3d3b3a"
       fill-opacity="1"
       id="g17">
      <g
         transform="translate(84.651664, 250.520859)"
         id="g16">
        <g
           id="g15">
          <path
             d="M 16.609375 -5.617188 L 4.894531 -5.617188 L 2.371094 0 L 0.0585938 0 L 9.671875 -21.027344 L 11.863281 -21.027344 L 21.476562 0 L 19.132812 0 Z M 15.800781 -7.417969 L 10.753906 -18.714844 L 5.707031 -7.417969 Z M 15.800781 -7.417969 "
             id="path14" />
        </g>
      </g>
    </g>
    <g
       fill="#3d3b3a"
       fill-opacity="1"
       id="g20">
      <g
         transform="translate(115.200212, 250.520859)"
         id="g19">
        <g
           id="g18">
          <path
             d="M 20.90625 -21.027344 L 11.59375 0 L 9.402344 0 L 0.0898438 -21.027344 L 2.492188 -21.027344 L 10.542969 -2.761719 L 18.652344 -21.027344 Z M 20.90625 -21.027344 "
             id="path17" />
        </g>
      </g>
    </g>
    <g
       fill="#3d3b3a"
       fill-opacity="1"
       id="g23">
      <g
         transform="translate(145.178088, 250.520859)"
         id="g22">
        <g
           id="g21">
          <path
             d="M 3.425781 -21.027344 L 5.648438 -21.027344 L 5.648438 0 L 3.425781 0 Z M 3.425781 -21.027344 "
             id="path20" />
        </g>
      </g>
    </g>
    <g
       fill="#3d3b3a"
       fill-opacity="1"
       id="g26">
      <g
         transform="translate(163.262029, 250.520859)"
         id="g25">
        <g
           id="g24">
          <path
             d="M 3.425781 -21.027344 L 5.648438 -21.027344 L 5.648438 -1.921875 L 17.421875 -1.921875 L 17.421875 0 L 3.425781 0 Z M 3.425781 -21.027344 "
             id="path23" />
        </g>
      </g>
    </g>
    <g
       fill="#3d3b3a"
       fill-opacity="1"
       id="g29">
      <g
         transform="translate(189.966072, 250.520859)"
         id="g28">
        <g
           id="g27">
          <path
             d="M 3.425781 -21.027344 L 5.648438 -21.027344 L 5.648438 -1.921875 L 17.421875 -1.921875 L 17.421875 0 L 3.425781 0 Z M 3.425781 -21.027344 "
             id="path26" />
        </g>
      </g>
    </g>
    <g
       fill="#3d3b3a"
       fill-opacity="1"
       id="g32">
      <g
         transform="translate(216.670126, 250.520859)"
         id="g31">
        <g
           id="g30">
          <path
             d="M 18.292969 -1.921875 L 18.292969 0 L 3.425781 0 L 3.425781 -21.027344 L 17.84375 -21.027344 L 17.84375 -19.105469 L 5.648438 -19.105469 L 5.648438 -11.625 L 16.519531 -11.625 L 16.519531 -9.730469 L 5.648438 -9.730469 L 5.648438 -1.921875 Z M 18.292969 -1.921875 "
             id="path29" />
        </g>
      </g>
    </g>
    <g
       fill="#3d3b3a"
       fill-opacity="1"
       id="g38">
      <g
         transform="translate(262.659488, 250.520859)"
         id="g37">
        <g
           id="g36">
          <path
             d="M 3.425781 -21.027344 L 5.648438 -21.027344 L 5.648438 -1.921875 L 17.421875 -1.921875 L 17.421875 0 L 3.425781 0 Z M 3.425781 -21.027344 "
             id="path35" />
        </g>
      </g>
    </g>
    <g
       fill="#3d3b3a"
       fill-opacity="1"
       id="g41">
      <g
         transform="translate(289.363542, 250.520859)"
         id="g40">
        <g
           id="g39">
          <path
             d="M 16.609375 -5.617188 L 4.894531 -5.617188 L 2.371094 0 L 0.0585938 0 L 9.671875 -21.027344 L 11.863281 -21.027344 L 21.476562 0 L 19.132812 0 Z M 15.800781 -7.417969 L 10.753906 -18.714844 L 5.707031 -7.417969 Z M 15.800781 -7.417969 "
             id="path38" />
        </g>
      </g>
    </g>
    <g
       fill="#3d3b3a"
       fill-opacity="1"
       id="g44">
      <g
         transform="translate(319.912078, 250.520859)"
         id="g43">
        <g
           id="g42">
          <path
             d="M 32.289062 -21.027344 L 25.203125 0 L 22.859375 0 L 16.699219 -17.933594 L 10.511719 0 L 8.199219 0 L 1.113281 -21.027344 L 3.394531 -21.027344 L 9.460938 -2.945312 L 15.738281 -21.027344 L 17.8125 -21.027344 L 24 -2.855469 L 30.15625 -21.027344 Z M 32.289062 -21.027344 "
             id="path41" />
        </g>
      </g>
    </g>
    <g
       fill="#3d3b3a"
       fill-opacity="1"
       id="g47">
      <g
         transform="translate(19.050739, 283.100489)"
         id="g46">
        <g
           id="g45">
          <path
             d="M 9.542969 -1.769531 C 9.558594 -1.785156 9.582031 -1.792969 9.613281 -1.792969 C 9.65625 -1.792969 9.695312 -1.765625 9.726562 -1.714844 C 9.757812 -1.660156 9.757812 -1.617188 9.726562 -1.585938 C 8.746094 -0.390625 7.886719 0.207031 7.152344 0.207031 C 6.753906 0.207031 6.460938 0.0976562 6.277344 -0.125 C 6.09375 -0.347656 6 -0.699219 6 -1.171875 C 6 -1.433594 6.023438 -1.726562 6.070312 -2.046875 L 6.347656 -3.609375 C 5.765625 -2.382812 5.070312 -1.425781 4.265625 -0.734375 C 3.460938 -0.046875 2.675781 0.300781 1.910156 0.300781 C 1.433594 0.300781 1.058594 0.152344 0.78125 -0.136719 C 0.507812 -0.429688 0.367188 -0.867188 0.367188 -1.449219 C 0.367188 -2.476562 0.710938 -3.597656 1.390625 -4.816406 C 2.074219 -6.035156 2.917969 -7.066406 3.921875 -7.910156 C 4.925781 -8.753906 5.871094 -9.175781 6.761719 -9.175781 C 7.035156 -9.175781 7.324219 -9.125 7.621094 -9.027344 C 7.921875 -8.925781 8.179688 -8.777344 8.394531 -8.578125 C 8.683594 -8.792969 8.921875 -9.050781 9.105469 -9.359375 C 9.136719 -9.390625 9.167969 -9.40625 9.199219 -9.40625 C 9.242188 -9.40625 9.289062 -9.390625 9.335938 -9.359375 C 9.382812 -9.328125 9.398438 -9.304688 9.382812 -9.289062 L 8.046875 -2.046875 C 8.003906 -1.847656 7.980469 -1.671875 7.980469 -1.519531 C 7.980469 -1.148438 8.085938 -0.964844 8.300781 -0.964844 C 8.59375 -0.964844 9.007812 -1.234375 9.542969 -1.769531 Z M 3.378906 -1.378906 C 3.839844 -1.378906 4.3125 -1.621094 4.792969 -2.105469 C 5.277344 -2.585938 5.699219 -3.175781 6.058594 -3.875 C 6.417969 -4.570312 6.652344 -5.21875 6.761719 -5.816406 C 6.804688 -6.078125 6.828125 -6.308594 6.828125 -6.507812 C 6.828125 -7 6.71875 -7.378906 6.496094 -7.644531 C 6.273438 -7.914062 5.964844 -8.046875 5.566406 -8.046875 C 4.859375 -8.046875 4.234375 -7.667969 3.691406 -6.910156 C 3.144531 -6.152344 2.765625 -5.167969 2.550781 -3.957031 C 2.476562 -3.464844 2.4375 -3.097656 2.4375 -2.851562 C 2.4375 -2.34375 2.523438 -1.972656 2.691406 -1.734375 C 2.859375 -1.5 3.089844 -1.378906 3.378906 -1.378906 Z M 3.378906 -1.378906 "
             id="path44" />
        </g>
      </g>
    </g>
    <g
       fill="#3d3b3a"
       fill-opacity="1"
       id="g50">
      <g
         transform="translate(36.159301, 283.100489)"
         id="g49">
        <g
           id="g48">
          <path
             d="M 6.992188 -8.875 C 7.097656 -8.875 7.152344 -8.808594 7.152344 -8.667969 C 7.152344 -8.546875 7.0625 -8.363281 6.886719 -8.117188 C 6.710938 -7.871094 6.546875 -7.75 6.394531 -7.75 C 6.347656 -7.75 6.097656 -7.789062 5.644531 -7.863281 C 5.191406 -7.941406 4.683594 -7.996094 4.117188 -8.023438 L 3.148438 -2.550781 C 3.121094 -2.308594 3.105469 -2.136719 3.105469 -2.046875 C 3.105469 -1.679688 3.199219 -1.410156 3.390625 -1.242188 C 3.582031 -1.074219 3.878906 -0.988281 4.277344 -0.988281 C 4.859375 -0.988281 5.503906 -1.273438 6.207031 -1.839844 L 6.230469 -1.839844 C 6.292969 -1.839844 6.347656 -1.816406 6.394531 -1.769531 C 6.4375 -1.726562 6.4375 -1.679688 6.394531 -1.632812 C 5.6875 -0.957031 5.0625 -0.472656 4.519531 -0.171875 C 3.972656 0.125 3.433594 0.277344 2.898438 0.277344 C 1.65625 0.277344 1.035156 -0.285156 1.035156 -1.402344 C 1.035156 -1.632812 1.058594 -1.886719 1.105469 -2.160156 L 2 -7.035156 C 2.046875 -7.296875 2.070312 -7.511719 2.070312 -7.679688 C 2.070312 -7.910156 2.007812 -8.0625 1.886719 -8.140625 C 1.761719 -8.21875 1.539062 -8.253906 1.21875 -8.253906 C 1.171875 -8.253906 1.148438 -8.308594 1.148438 -8.417969 C 1.148438 -8.554688 1.171875 -8.625 1.21875 -8.625 C 2.445312 -8.625 3.417969 -9.296875 4.140625 -10.648438 C 4.167969 -10.691406 4.222656 -10.714844 4.300781 -10.714844 C 4.375 -10.714844 4.445312 -10.699219 4.507812 -10.667969 C 4.566406 -10.640625 4.589844 -10.609375 4.574219 -10.578125 L 4.230469 -8.691406 C 4.660156 -8.707031 5.027344 -8.726562 5.335938 -8.75 C 5.640625 -8.773438 5.902344 -8.792969 6.117188 -8.808594 C 6.515625 -8.851562 6.804688 -8.875 6.992188 -8.875 Z M 6.992188 -8.875 "
             id="path47" />
        </g>
      </g>
    </g>
    <g
       fill="#3d3b3a"
       fill-opacity="1"
       id="g53">
      <g
         transform="translate(49.979963, 283.100489)"
         id="g52">
        <g
           id="g51">
          <path
             d="M 6.992188 -8.875 C 7.097656 -8.875 7.152344 -8.808594 7.152344 -8.667969 C 7.152344 -8.546875 7.0625 -8.363281 6.886719 -8.117188 C 6.710938 -7.871094 6.546875 -7.75 6.394531 -7.75 C 6.347656 -7.75 6.097656 -7.789062 5.644531 -7.863281 C 5.191406 -7.941406 4.683594 -7.996094 4.117188 -8.023438 L 3.148438 -2.550781 C 3.121094 -2.308594 3.105469 -2.136719 3.105469 -2.046875 C 3.105469 -1.679688 3.199219 -1.410156 3.390625 -1.242188 C 3.582031 -1.074219 3.878906 -0.988281 4.277344 -0.988281 C 4.859375 -0.988281 5.503906 -1.273438 6.207031 -1.839844 L 6.230469 -1.839844 C 6.292969 -1.839844 6.347656 -1.816406 6.394531 -1.769531 C 6.4375 -1.726562 6.4375 -1.679688 6.394531 -1.632812 C 5.6875 -0.957031 5.0625 -0.472656 4.519531 -0.171875 C 3.972656 0.125 3.433594 0.277344 2.898438 0.277344 C 1.65625 0.277344 1.035156 -0.285156 1.035156 -1.402344 C 1.035156 -1.632812 1.058594 -1.886719 1.105469 -2.160156 L 2 -7.035156 C 2.046875 -7.296875 2.070312 -7.511719 2.070312 -7.679688 C 2.070312 -7.910156 2.007812 -8.0625 1.886719 -8.140625 C 1.761719 -8.21875 1.539062 -8.253906 1.21875 -8.253906 C 1.171875 -8.253906 1.148438 -8.308594 1.148438 -8.417969 C 1.148438 -8.554688 1.171875 -8.625 1.21875 -8.625 C 2.445312 -8.625 3.417969 -9.296875 4.140625 -10.648438 C 4.167969 -10.691406 4.222656 -10.714844 4.300781 -10.714844 C 4.375 -10.714844 4.445312 -10.699219 4.507812 -10.667969 C 4.566406 -10.640625 4.589844 -10.609375 4.574219 -10.578125 L 4.230469 -8.691406 C 4.660156 -8.707031 5.027344 -8.726562 5.335938 -8.75 C 5.640625 -8.773438 5.902344 -8.792969 6.117188 -8.808594 C 6.515625 -8.851562 6.804688 -8.875 6.992188 -8.875 Z M 6.992188 -8.875 "
             id="path50" />
        </g>
      </g>
    </g>
    <g
       fill="#3d3b3a"
       fill-opacity="1"
       id="g56">
      <g
         transform="translate(63.800626, 283.100489)"
         id="g55">
        <g
           id="g54">
          <path
             d="M 3.632812 0.320312 C 2.621094 0.320312 1.851562 -0.00390625 1.320312 -0.65625 C 0.792969 -1.308594 0.527344 -2.152344 0.527344 -3.195312 C 0.527344 -3.65625 0.566406 -4.070312 0.644531 -4.4375 C 0.8125 -5.359375 1.144531 -6.179688 1.644531 -6.898438 C 2.140625 -7.617188 2.742188 -8.179688 3.449219 -8.578125 C 4.15625 -8.976562 4.914062 -9.175781 5.726562 -9.175781 C 6.753906 -9.175781 7.539062 -8.863281 8.082031 -8.242188 C 8.628906 -7.621094 8.898438 -6.792969 8.898438 -5.75 C 8.898438 -5.335938 8.851562 -4.898438 8.761719 -4.4375 C 8.5625 -3.425781 8.199219 -2.5625 7.667969 -1.851562 C 7.140625 -1.136719 6.519531 -0.597656 5.804688 -0.230469 C 5.09375 0.136719 4.367188 0.320312 3.632812 0.320312 Z M 4.414062 -0.253906 C 4.90625 -0.253906 5.332031 -0.535156 5.691406 -1.105469 C 6.050781 -1.671875 6.316406 -2.445312 6.484375 -3.425781 C 6.59375 -4.023438 6.644531 -4.628906 6.644531 -5.242188 C 6.644531 -6.238281 6.496094 -7.050781 6.195312 -7.679688 C 5.898438 -8.308594 5.488281 -8.625 4.96875 -8.625 C 4.507812 -8.625 4.097656 -8.355469 3.738281 -7.816406 C 3.375 -7.28125 3.105469 -6.484375 2.921875 -5.425781 C 2.8125 -4.828125 2.757812 -4.222656 2.757812 -3.609375 C 2.757812 -2.613281 2.90625 -1.804688 3.195312 -1.183594 C 3.488281 -0.5625 3.894531 -0.253906 4.414062 -0.253906 Z M 4.414062 -0.253906 "
             id="path53" />
        </g>
      </g>
    </g>
    <g
       fill="#3d3b3a"
       fill-opacity="1"
       id="g59">
      <g
         transform="translate(80.081459, 283.100489)"
         id="g58">
        <g
           id="g57">
          <path
             d="M 6.828125 -9.082031 C 7.226562 -9.082031 7.609375 -8.9375 7.96875 -8.644531 C 8.328125 -8.355469 8.476562 -8.023438 8.417969 -7.65625 C 8.386719 -7.425781 8.277344 -7.210938 8.09375 -7.011719 C 7.910156 -6.8125 7.679688 -6.714844 7.40625 -6.714844 C 7.128906 -6.714844 6.828125 -6.84375 6.507812 -7.105469 C 6.398438 -7.183594 6.292969 -7.25 6.1875 -7.3125 C 6.078125 -7.375 5.972656 -7.40625 5.863281 -7.40625 C 5.601562 -7.40625 5.28125 -7 4.898438 -6.1875 C 4.515625 -5.375 4.152344 -4.402344 3.804688 -3.277344 C 3.460938 -2.148438 3.210938 -1.15625 3.058594 -0.300781 L 3.058594 -0.277344 C 3.027344 -0.136719 2.90625 -0.0273438 2.691406 0.0585938 C 2.476562 0.140625 2.167969 0.183594 1.769531 0.183594 C 1.265625 0.183594 1.011719 0.121094 1.011719 0 C 1.027344 -0.105469 1.078125 -0.335938 1.160156 -0.691406 C 1.246094 -1.042969 1.320312 -1.378906 1.378906 -1.703125 L 2.324219 -6.828125 C 2.351562 -7.074219 2.367188 -7.234375 2.367188 -7.3125 C 2.367188 -7.742188 2.230469 -7.957031 1.953125 -7.957031 C 1.648438 -7.957031 1.210938 -7.648438 0.644531 -7.035156 C 0.628906 -7.019531 0.605469 -7.011719 0.574219 -7.011719 C 0.511719 -7.011719 0.46875 -7.039062 0.4375 -7.09375 C 0.40625 -7.148438 0.414062 -7.199219 0.460938 -7.242188 C 1.011719 -7.886719 1.507812 -8.355469 1.941406 -8.644531 C 2.378906 -8.9375 2.820312 -9.082031 3.265625 -9.082031 C 3.648438 -9.082031 3.925781 -8.980469 4.09375 -8.773438 C 4.261719 -8.566406 4.347656 -8.261719 4.347656 -7.863281 C 4.347656 -7.632812 4.324219 -7.382812 4.277344 -7.105469 L 3.816406 -4.574219 C 4.722656 -7.582031 5.726562 -9.082031 6.828125 -9.082031 Z M 6.828125 -9.082031 "
             id="path56" />
        </g>
      </g>
    </g>
    <g
       fill="#3d3b3a"
       fill-opacity="1"
       id="g62">
      <g
         transform="translate(95.166693, 283.100489)"
         id="g61">
        <g
           id="g60">
          <path
             d="M 10.253906 -1.769531 C 10.285156 -1.800781 10.308594 -1.816406 10.324219 -1.816406 C 10.371094 -1.816406 10.410156 -1.789062 10.441406 -1.734375 C 10.46875 -1.683594 10.46875 -1.632812 10.441406 -1.585938 C 9.917969 -0.972656 9.453125 -0.519531 9.046875 -0.230469 C 8.640625 0.0625 8.222656 0.207031 7.796875 0.207031 C 7.058594 0.207031 6.691406 -0.222656 6.691406 -1.082031 C 6.691406 -1.3125 6.730469 -1.632812 6.804688 -2.046875 L 7.472656 -5.703125 C 7.550781 -6.132812 7.589844 -6.476562 7.589844 -6.738281 C 7.589844 -7.488281 7.34375 -7.863281 6.851562 -7.863281 C 6.421875 -7.863281 5.980469 -7.585938 5.519531 -7.023438 C 5.058594 -6.464844 4.625 -5.648438 4.21875 -4.574219 C 3.8125 -3.503906 3.472656 -2.214844 3.195312 -0.710938 L 3.128906 -0.277344 C 3.050781 0.03125 2.621094 0.183594 1.839844 0.183594 C 1.332031 0.183594 1.082031 0.121094 1.082031 0 L 1.171875 -0.484375 C 1.324219 -1.203125 1.410156 -1.609375 1.425781 -1.703125 L 2.367188 -6.828125 C 2.398438 -6.96875 2.414062 -7.136719 2.414062 -7.335938 C 2.414062 -7.75 2.285156 -7.957031 2.023438 -7.957031 C 1.703125 -7.957031 1.257812 -7.648438 0.691406 -7.035156 C 0.675781 -7.019531 0.652344 -7.011719 0.621094 -7.011719 C 0.574219 -7.011719 0.535156 -7.039062 0.507812 -7.09375 C 0.476562 -7.148438 0.476562 -7.199219 0.507812 -7.242188 C 1.058594 -7.886719 1.550781 -8.355469 1.988281 -8.644531 C 2.425781 -8.9375 2.867188 -9.082031 3.3125 -9.082031 C 4.03125 -9.082031 4.390625 -8.675781 4.390625 -7.863281 C 4.390625 -7.632812 4.367188 -7.382812 4.324219 -7.105469 L 3.957031 -5.011719 C 4.492188 -6.347656 5.109375 -7.375 5.804688 -8.09375 C 6.503906 -8.816406 7.242188 -9.175781 8.023438 -9.175781 C 9.082031 -9.175781 9.613281 -8.539062 9.613281 -7.265625 C 9.613281 -6.976562 9.574219 -6.597656 9.496094 -6.140625 L 8.738281 -2.046875 C 8.691406 -1.816406 8.667969 -1.632812 8.667969 -1.496094 C 8.667969 -1.140625 8.792969 -0.964844 9.035156 -0.964844 C 9.191406 -0.964844 9.363281 -1.035156 9.554688 -1.171875 C 9.746094 -1.3125 9.980469 -1.511719 10.253906 -1.769531 Z M 10.253906 -1.769531 "
             id="path59" />
        </g>
      </g>
    </g>
    <g
       fill="#3d3b3a"
       fill-opacity="1"
       id="g65">
      <g
         transform="translate(112.988016, 283.100489)"
         id="g64">
        <g
           id="g63">
          <path
             d="M 6.207031 -9.175781 C 6.792969 -9.175781 7.242188 -9.074219 7.566406 -8.875 C 7.886719 -8.675781 8.046875 -8.402344 8.046875 -8.046875 C 8.046875 -7.359375 7.539062 -6.710938 6.519531 -6.105469 C 5.5 -5.5 4.269531 -5.058594 2.828125 -4.78125 C 2.78125 -4.445312 2.757812 -4.117188 2.757812 -3.792969 C 2.757812 -2.875 2.949219 -2.132812 3.335938 -1.574219 C 3.71875 -1.015625 4.285156 -0.734375 5.035156 -0.734375 C 5.359375 -0.734375 5.707031 -0.792969 6.082031 -0.910156 C 6.457031 -1.023438 6.800781 -1.203125 7.105469 -1.449219 L 7.128906 -1.449219 C 7.175781 -1.449219 7.214844 -1.425781 7.253906 -1.378906 C 7.292969 -1.332031 7.296875 -1.296875 7.265625 -1.265625 C 6.714844 -0.726562 6.132812 -0.335938 5.519531 -0.09375 C 4.90625 0.152344 4.292969 0.277344 3.679688 0.277344 C 2.621094 0.277344 1.828125 -0.046875 1.300781 -0.691406 C 0.769531 -1.332031 0.507812 -2.144531 0.507812 -3.128906 C 0.507812 -3.464844 0.542969 -3.839844 0.621094 -4.253906 C 0.773438 -5.082031 1.117188 -5.871094 1.644531 -6.621094 C 2.171875 -7.375 2.835938 -7.988281 3.632812 -8.460938 C 4.429688 -8.9375 5.289062 -9.175781 6.207031 -9.175781 Z M 5.726562 -7.449219 C 5.742188 -7.511719 5.75 -7.605469 5.75 -7.726562 C 5.75 -7.988281 5.683594 -8.191406 5.554688 -8.335938 C 5.421875 -8.480469 5.242188 -8.554688 5.011719 -8.554688 C 4.523438 -8.554688 4.089844 -8.238281 3.714844 -7.613281 C 3.339844 -6.984375 3.058594 -6.164062 2.875 -5.152344 C 4.636719 -5.609375 5.585938 -6.378906 5.726562 -7.449219 Z M 5.726562 -7.449219 "
             id="path62" />
        </g>
      </g>
    </g>
    <g
       fill="#3d3b3a"
       fill-opacity="1"
       id="g68">
      <g
         transform="translate(128.096241, 283.100489)"
         id="g67">
        <g
           id="g66">
          <path
             d="M 8.460938 -9.105469 C 8.84375 -9.105469 9.144531 -8.96875 9.359375 -8.691406 C 9.574219 -8.417969 9.679688 -8.019531 9.679688 -7.496094 C 9.679688 -6.363281 9.058594 -4.652344 7.816406 -2.367188 C 6.578125 -0.0859375 5.160156 1.957031 3.5625 3.757812 C 1.96875 5.5625 0.667969 6.460938 -0.34375 6.460938 C -1.25 6.460938 -1.703125 6.101562 -1.703125 5.378906 C -1.703125 4.953125 -1.582031 4.617188 -1.34375 4.378906 C -1.109375 4.144531 -0.773438 4.023438 -0.34375 4.023438 C -0.113281 4.023438 0.199219 4.117188 0.597656 4.300781 C 0.644531 4.316406 0.757812 4.363281 0.941406 4.4375 C 1.125 4.515625 1.3125 4.554688 1.496094 4.554688 C 1.753906 4.554688 2.015625 4.460938 2.277344 4.277344 C 2.675781 4.015625 3.171875 3.496094 3.769531 2.714844 L 3.769531 1.632812 C 3.769531 -1.355469 3.558594 -3.675781 3.140625 -5.324219 C 2.71875 -6.972656 2.152344 -7.796875 1.449219 -7.796875 C 1.265625 -7.796875 1.078125 -7.726562 0.886719 -7.589844 C 0.695312 -7.449219 0.535156 -7.28125 0.414062 -7.082031 C 0.398438 -7.035156 0.351562 -7.011719 0.277344 -7.011719 C 0.167969 -7.011719 0.121094 -7.058594 0.136719 -7.152344 C 0.398438 -7.703125 0.796875 -8.164062 1.332031 -8.53125 C 1.871094 -8.898438 2.359375 -9.082031 2.804688 -9.082031 C 3.386719 -9.082031 3.898438 -8.742188 4.335938 -8.058594 C 4.769531 -7.378906 5.101562 -6.441406 5.324219 -5.253906 C 5.546875 -4.066406 5.65625 -2.738281 5.65625 -1.265625 C 5.65625 -0.683594 5.648438 -0.238281 5.632812 0.0703125 C 6.230469 -0.882812 6.75 -1.765625 7.1875 -2.585938 C 7.621094 -3.40625 7.886719 -4.007812 7.980469 -4.390625 C 8.070312 -4.761719 8.117188 -5.074219 8.117188 -5.335938 C 8.117188 -5.65625 8.070312 -5.917969 7.980469 -6.117188 C 7.886719 -6.316406 7.757812 -6.546875 7.589844 -6.804688 C 7.433594 -7.035156 7.320312 -7.222656 7.242188 -7.371094 C 7.167969 -7.515625 7.128906 -7.703125 7.128906 -7.933594 C 7.128906 -8.285156 7.25 -8.570312 7.496094 -8.785156 C 7.742188 -9 8.0625 -9.105469 8.460938 -9.105469 Z M 8.460938 -9.105469 "
             id="path65" />
        </g>
      </g>
    </g>
    <g
       fill="#3d3b3a"
       fill-opacity="1"
       id="g71">
      <g
         transform="translate(145.411723, 283.100489)"
         id="g70">
        <g
           id="g69">
          <path
             d="M 2.484375 0.253906 C 1.824219 0.253906 1.265625 0.105469 0.804688 -0.183594 C 0.34375 -0.476562 0.113281 -0.828125 0.113281 -1.242188 C 0.113281 -1.59375 0.214844 -1.867188 0.414062 -2.058594 C 0.613281 -2.25 0.859375 -2.34375 1.148438 -2.34375 C 1.410156 -2.34375 1.617188 -2.277344 1.769531 -2.136719 C 1.925781 -2 2.101562 -1.777344 2.300781 -1.472656 C 2.5 -1.148438 2.6875 -0.914062 2.863281 -0.757812 C 3.039062 -0.605469 3.28125 -0.527344 3.585938 -0.527344 C 3.847656 -0.527344 4.042969 -0.601562 4.171875 -0.746094 C 4.304688 -0.894531 4.390625 -1.125 4.4375 -1.449219 C 4.453125 -1.511719 4.460938 -1.601562 4.460938 -1.726562 C 4.460938 -2.167969 4.332031 -2.550781 4.070312 -2.875 C 3.808594 -3.195312 3.402344 -3.570312 2.851562 -4 C 2.300781 -4.460938 1.890625 -4.855469 1.621094 -5.183594 C 1.351562 -5.515625 1.21875 -5.910156 1.21875 -6.371094 C 1.21875 -6.460938 1.234375 -6.597656 1.265625 -6.785156 C 1.339844 -7.167969 1.535156 -7.535156 1.851562 -7.886719 C 2.164062 -8.238281 2.570312 -8.53125 3.070312 -8.761719 C 3.566406 -8.992188 4.109375 -9.105469 4.691406 -9.105469 C 5.425781 -9.105469 5.996094 -8.984375 6.402344 -8.738281 C 6.808594 -8.492188 6.992188 -8.15625 6.945312 -7.726562 C 6.898438 -7.433594 6.773438 -7.207031 6.566406 -7.035156 C 6.359375 -6.867188 6.140625 -6.785156 5.910156 -6.785156 C 5.585938 -6.785156 5.351562 -6.855469 5.195312 -7.003906 C 5.042969 -7.148438 4.90625 -7.359375 4.78125 -7.632812 C 4.644531 -7.910156 4.507812 -8.117188 4.367188 -8.253906 C 4.230469 -8.394531 4.007812 -8.460938 3.703125 -8.460938 C 3.457031 -8.460938 3.265625 -8.390625 3.128906 -8.242188 C 2.988281 -8.097656 2.90625 -7.933594 2.875 -7.75 C 2.859375 -7.6875 2.851562 -7.597656 2.851562 -7.472656 C 2.851562 -7.074219 2.980469 -6.722656 3.242188 -6.414062 C 3.503906 -6.109375 3.902344 -5.742188 4.4375 -5.3125 C 5.019531 -4.835938 5.449219 -4.425781 5.726562 -4.082031 C 6 -3.738281 6.140625 -3.335938 6.140625 -2.875 C 6.140625 -2.796875 6.125 -2.667969 6.09375 -2.484375 C 6.015625 -2.070312 5.816406 -1.652344 5.496094 -1.230469 C 5.175781 -0.808594 4.75 -0.457031 4.21875 -0.171875 C 3.691406 0.109375 3.113281 0.253906 2.484375 0.253906 Z M 2.484375 0.253906 "
             id="path68" />
        </g>
      </g>
    </g>
    <g
       fill="#3d3b3a"
       fill-opacity="1"
       id="g77">
      <g
         transform="translate(171.857461, 283.100489)"
         id="g76">
        <g
           id="g75">
          <path
             d="M 17.0625 -9.175781 C 17.597656 -9.175781 17.867188 -8.875 17.867188 -8.277344 C 17.867188 -7.847656 17.734375 -7.410156 17.464844 -6.957031 C 17.195312 -6.503906 16.847656 -6.132812 16.417969 -5.839844 C 15.988281 -5.550781 15.535156 -5.402344 15.0625 -5.402344 C 14.679688 -5.402344 14.15625 -5.542969 13.5 -5.816406 C 13.175781 -3.871094 12.457031 -2.367188 11.335938 -1.3125 C 10.21875 -0.253906 8.859375 0.277344 7.265625 0.277344 C 6.148438 0.277344 5.15625 0.0273438 4.289062 -0.472656 C 3.421875 -0.96875 2.75 -1.636719 2.277344 -2.472656 C 1.800781 -3.308594 1.5625 -4.207031 1.5625 -5.175781 C 1.5625 -5.574219 1.609375 -5.980469 1.703125 -6.394531 C 1.871094 -7.21875 2.210938 -7.960938 2.726562 -8.613281 C 3.238281 -9.261719 3.867188 -9.773438 4.609375 -10.140625 C 5.355469 -10.507812 6.148438 -10.691406 6.992188 -10.691406 C 7.742188 -10.691406 8.386719 -10.5625 8.921875 -10.300781 C 9.671875 -11.175781 10.046875 -11.910156 10.046875 -12.507812 C 10.046875 -12.800781 9.996094 -13.019531 9.886719 -13.164062 C 9.78125 -13.308594 9.613281 -13.453125 9.382812 -13.589844 C 9.152344 -13.726562 8.984375 -13.867188 8.875 -14.003906 C 8.769531 -14.140625 8.714844 -14.355469 8.714844 -14.648438 C 8.714844 -15 8.820312 -15.285156 9.027344 -15.5 C 9.234375 -15.714844 9.511719 -15.820312 9.863281 -15.820312 C 10.308594 -15.820312 10.648438 -15.644531 10.875 -15.292969 C 11.105469 -14.9375 11.222656 -14.480469 11.222656 -13.910156 C 11.222656 -12.960938 10.933594 -12.042969 10.359375 -11.152344 C 9.785156 -10.261719 9.074219 -9.445312 8.230469 -8.703125 C 7.390625 -7.960938 6.238281 -7.019531 4.78125 -5.886719 L 3.816406 -5.128906 C 3.984375 -3.871094 4.472656 -2.878906 5.277344 -2.148438 C 6.082031 -1.421875 7.027344 -1.058594 8.117188 -1.058594 C 8.898438 -1.058594 9.636719 -1.257812 10.324219 -1.65625 C 11.015625 -2.054688 11.597656 -2.632812 12.074219 -3.390625 C 12.546875 -4.152344 12.863281 -5.035156 13.015625 -6.046875 C 12.953125 -6.078125 12.753906 -6.1875 12.417969 -6.371094 C 11.757812 -6.707031 11.253906 -6.949219 10.898438 -7.09375 C 10.546875 -7.238281 10.203125 -7.3125 9.863281 -7.3125 C 9.605469 -7.3125 9.414062 -7.269531 9.289062 -7.1875 C 9.167969 -7.101562 9.105469 -6.984375 9.105469 -6.828125 C 9.105469 -6.644531 9.207031 -6.4375 9.40625 -6.207031 C 9.605469 -5.949219 9.703125 -5.734375 9.703125 -5.566406 C 9.703125 -5.378906 9.640625 -5.214844 9.507812 -5.070312 C 9.378906 -4.925781 9.183594 -4.851562 8.921875 -4.851562 C 8.691406 -4.851562 8.496094 -4.925781 8.335938 -5.070312 C 8.175781 -5.214844 8.09375 -5.441406 8.09375 -5.75 C 8.09375 -6.191406 8.25 -6.636719 8.566406 -7.082031 C 8.878906 -7.527344 9.28125 -7.890625 9.773438 -8.175781 C 10.261719 -8.457031 10.761719 -8.601562 11.265625 -8.601562 C 11.667969 -8.601562 12.074219 -8.519531 12.484375 -8.359375 C 12.898438 -8.199219 13.429688 -7.957031 14.074219 -7.632812 C 14.59375 -7.375 15.023438 -7.175781 15.359375 -7.035156 C 15.699219 -6.898438 16.003906 -6.828125 16.28125 -6.828125 C 16.480469 -6.828125 16.644531 -6.867188 16.773438 -6.945312 C 16.90625 -7.019531 16.96875 -7.128906 16.96875 -7.265625 C 16.96875 -7.375 16.871094 -7.527344 16.671875 -7.726562 C 16.519531 -7.878906 16.40625 -8.007812 16.339844 -8.105469 C 16.269531 -8.207031 16.234375 -8.339844 16.234375 -8.507812 C 16.234375 -8.707031 16.308594 -8.867188 16.453125 -8.992188 C 16.597656 -9.113281 16.800781 -9.175781 17.0625 -9.175781 Z M 3.839844 -7.128906 C 3.761719 -6.621094 3.742188 -6.148438 3.769531 -5.703125 C 4.046875 -5.933594 4.191406 -6.054688 4.207031 -6.070312 C 5.558594 -7.128906 6.5625 -7.964844 7.21875 -8.578125 C 6.929688 -9.527344 6.4375 -10.003906 5.75 -10.003906 C 5.242188 -10.003906 4.828125 -9.734375 4.507812 -9.199219 C 4.183594 -8.660156 3.960938 -7.972656 3.839844 -7.128906 Z M 3.839844 -7.128906 "
             id="path74" />
        </g>
      </g>
    </g>
    <g
       fill="#3d3b3a"
       fill-opacity="1"
       id="g83">
      <g
         transform="translate(208.626719, 283.100489)"
         id="g82">
        <g
           id="g81">
          <path
             d="M 3.679688 0.300781 C 2.605469 0.300781 1.816406 -0.0507812 1.3125 -0.746094 C 0.804688 -1.445312 0.550781 -2.324219 0.550781 -3.378906 C 0.550781 -3.761719 0.589844 -4.183594 0.667969 -4.644531 C 0.820312 -5.535156 1.167969 -6.324219 1.714844 -7.011719 C 2.257812 -7.703125 2.898438 -8.234375 3.632812 -8.613281 C 4.367188 -8.988281 5.097656 -9.175781 5.816406 -9.175781 C 6.386719 -9.175781 6.886719 -9.050781 7.324219 -8.808594 C 7.761719 -8.5625 7.980469 -8.210938 7.980469 -7.75 C 7.980469 -7.398438 7.875 -7.117188 7.667969 -6.910156 C 7.460938 -6.703125 7.175781 -6.597656 6.804688 -6.597656 C 6.4375 -6.597656 6.171875 -6.695312 6 -6.886719 C 5.832031 -7.078125 5.71875 -7.328125 5.65625 -7.632812 C 5.582031 -7.925781 5.484375 -8.148438 5.371094 -8.300781 C 5.253906 -8.453125 5.066406 -8.53125 4.804688 -8.53125 C 4.347656 -8.53125 3.941406 -8.25 3.585938 -7.691406 C 3.234375 -7.132812 2.980469 -6.386719 2.828125 -5.449219 C 2.738281 -4.945312 2.691406 -4.460938 2.691406 -4 C 2.691406 -3.035156 2.890625 -2.265625 3.289062 -1.691406 C 3.6875 -1.117188 4.285156 -0.828125 5.082031 -0.828125 C 5.386719 -0.828125 5.742188 -0.902344 6.140625 -1.046875 C 6.539062 -1.191406 6.859375 -1.355469 7.105469 -1.539062 L 7.128906 -1.539062 C 7.175781 -1.539062 7.21875 -1.519531 7.265625 -1.472656 C 7.3125 -1.425781 7.320312 -1.378906 7.289062 -1.332031 C 6.738281 -0.796875 6.148438 -0.390625 5.519531 -0.113281 C 4.890625 0.160156 4.277344 0.300781 3.679688 0.300781 Z M 3.679688 0.300781 "
             id="path80" />
        </g>
      </g>
    </g>
    <g
       fill="#3d3b3a"
       fill-opacity="1"
       id="g86">
      <g
         transform="translate(223.505033, 283.100489)"
         id="g85">
        <g
           id="g84">
          <path
             d="M 3.632812 0.320312 C 2.621094 0.320312 1.851562 -0.00390625 1.320312 -0.65625 C 0.792969 -1.308594 0.527344 -2.152344 0.527344 -3.195312 C 0.527344 -3.65625 0.566406 -4.070312 0.644531 -4.4375 C 0.8125 -5.359375 1.144531 -6.179688 1.644531 -6.898438 C 2.140625 -7.617188 2.742188 -8.179688 3.449219 -8.578125 C 4.15625 -8.976562 4.914062 -9.175781 5.726562 -9.175781 C 6.753906 -9.175781 7.539062 -8.863281 8.082031 -8.242188 C 8.628906 -7.621094 8.898438 -6.792969 8.898438 -5.75 C 8.898438 -5.335938 8.851562 -4.898438 8.761719 -4.4375 C 8.5625 -3.425781 8.199219 -2.5625 7.667969 -1.851562 C 7.140625 -1.136719 6.519531 -0.597656 5.804688 -0.230469 C 5.09375 0.136719 4.367188 0.320312 3.632812 0.320312 Z M 4.414062 -0.253906 C 4.90625 -0.253906 5.332031 -0.535156 5.691406 -1.105469 C 6.050781 -1.671875 6.316406 -2.445312 6.484375 -3.425781 C 6.59375 -4.023438 6.644531 -4.628906 6.644531 -5.242188 C 6.644531 -6.238281 6.496094 -7.050781 6.195312 -7.679688 C 5.898438 -8.308594 5.488281 -8.625 4.96875 -8.625 C 4.507812 -8.625 4.097656 -8.355469 3.738281 -7.816406 C 3.375 -7.28125 3.105469 -6.484375 2.921875 -5.425781 C 2.8125 -4.828125 2.757812 -4.222656 2.757812 -3.609375 C 2.757812 -2.613281 2.90625 -1.804688 3.195312 -1.183594 C 3.488281 -0.5625 3.894531 -0.253906 4.414062 -0.253906 Z M 4.414062 -0.253906 "
             id="path83" />
        </g>
      </g>
    </g>
    <g
       fill="#3d3b3a"
       fill-opacity="1"
       id="g89">
      <g
         transform="translate(239.785878, 283.100489)"
         id="g88">
        <g
           id="g87">
          <path
             d="M 10.253906 -1.839844 C 10.269531 -1.855469 10.292969 -1.863281 10.324219 -1.863281 C 10.371094 -1.863281 10.410156 -1.835938 10.441406 -1.78125 C 10.46875 -1.726562 10.46875 -1.679688 10.441406 -1.632812 C 9.886719 -0.988281 9.394531 -0.519531 8.957031 -0.230469 C 8.519531 0.0625 8.078125 0.207031 7.632812 0.207031 C 6.914062 0.207031 6.554688 -0.199219 6.554688 -1.011719 C 6.554688 -1.242188 6.578125 -1.496094 6.621094 -1.769531 L 6.992188 -3.863281 C 6.453125 -2.53125 5.835938 -1.503906 5.140625 -0.78125 C 4.441406 -0.0625 3.703125 0.300781 2.921875 0.300781 C 1.863281 0.300781 1.332031 -0.328125 1.332031 -1.585938 C 1.332031 -1.984375 1.371094 -2.367188 1.449219 -2.738281 L 2.253906 -6.828125 C 2.300781 -7.058594 2.324219 -7.242188 2.324219 -7.382812 C 2.324219 -7.734375 2.199219 -7.910156 1.953125 -7.910156 C 1.800781 -7.910156 1.636719 -7.84375 1.460938 -7.714844 C 1.285156 -7.585938 1.050781 -7.382812 0.757812 -7.105469 C 0.726562 -7.074219 0.699219 -7.058594 0.667969 -7.058594 C 0.621094 -7.058594 0.582031 -7.085938 0.550781 -7.140625 C 0.519531 -7.195312 0.527344 -7.242188 0.574219 -7.289062 C 1.097656 -7.902344 1.550781 -8.355469 1.941406 -8.644531 C 2.335938 -8.9375 2.742188 -9.082031 3.171875 -9.082031 C 3.925781 -9.082031 4.300781 -8.644531 4.300781 -7.773438 C 4.300781 -7.558594 4.261719 -7.242188 4.183594 -6.828125 L 3.472656 -3.171875 C 3.394531 -2.835938 3.355469 -2.492188 3.355469 -2.136719 C 3.355469 -1.386719 3.601562 -1.011719 4.09375 -1.011719 C 4.523438 -1.011719 4.96875 -1.292969 5.425781 -1.851562 C 5.886719 -2.410156 6.320312 -3.226562 6.726562 -4.300781 C 7.132812 -5.375 7.472656 -6.660156 7.75 -8.164062 L 7.816406 -8.601562 C 7.894531 -8.90625 8.324219 -9.058594 9.105469 -9.058594 C 9.367188 -9.058594 9.558594 -9.039062 9.679688 -9.003906 C 9.804688 -8.964844 9.863281 -8.921875 9.863281 -8.875 L 9.773438 -8.394531 C 9.621094 -7.671875 9.535156 -7.265625 9.519531 -7.175781 L 8.578125 -2.046875 C 8.546875 -1.910156 8.53125 -1.738281 8.53125 -1.539062 C 8.53125 -1.125 8.660156 -0.917969 8.921875 -0.917969 C 9.242188 -0.917969 9.6875 -1.226562 10.253906 -1.839844 Z M 10.253906 -1.839844 "
             id="path86" />
        </g>
      </g>
    </g>
    <g
       fill="#3d3b3a"
       fill-opacity="1"
       id="g92">
      <g
         transform="translate(257.630191, 283.100489)"
         id="g91">
        <g
           id="g90">
          <path
             d="M 10.253906 -1.769531 C 10.285156 -1.800781 10.308594 -1.816406 10.324219 -1.816406 C 10.371094 -1.816406 10.410156 -1.789062 10.441406 -1.734375 C 10.46875 -1.683594 10.46875 -1.632812 10.441406 -1.585938 C 9.917969 -0.972656 9.453125 -0.519531 9.046875 -0.230469 C 8.640625 0.0625 8.222656 0.207031 7.796875 0.207031 C 7.058594 0.207031 6.691406 -0.222656 6.691406 -1.082031 C 6.691406 -1.3125 6.730469 -1.632812 6.804688 -2.046875 L 7.472656 -5.703125 C 7.550781 -6.132812 7.589844 -6.476562 7.589844 -6.738281 C 7.589844 -7.488281 7.34375 -7.863281 6.851562 -7.863281 C 6.421875 -7.863281 5.980469 -7.585938 5.519531 -7.023438 C 5.058594 -6.464844 4.625 -5.648438 4.21875 -4.574219 C 3.8125 -3.503906 3.472656 -2.214844 3.195312 -0.710938 L 3.128906 -0.277344 C 3.050781 0.03125 2.621094 0.183594 1.839844 0.183594 C 1.332031 0.183594 1.082031 0.121094 1.082031 0 L 1.171875 -0.484375 C 1.324219 -1.203125 1.410156 -1.609375 1.425781 -1.703125 L 2.367188 -6.828125 C 2.398438 -6.96875 2.414062 -7.136719 2.414062 -7.335938 C 2.414062 -7.75 2.285156 -7.957031 2.023438 -7.957031 C 1.703125 -7.957031 1.257812 -7.648438 0.691406 -7.035156 C 0.675781 -7.019531 0.652344 -7.011719 0.621094 -7.011719 C 0.574219 -7.011719 0.535156 -7.039062 0.507812 -7.09375 C 0.476562 -7.148438 0.476562 -7.199219 0.507812 -7.242188 C 1.058594 -7.886719 1.550781 -8.355469 1.988281 -8.644531 C 2.425781 -8.9375 2.867188 -9.082031 3.3125 -9.082031 C 4.03125 -9.082031 4.390625 -8.675781 4.390625 -7.863281 C 4.390625 -7.632812 4.367188 -7.382812 4.324219 -7.105469 L 3.957031 -5.011719 C 4.492188 -6.347656 5.109375 -7.375 5.804688 -8.09375 C 6.503906 -8.816406 7.242188 -9.175781 8.023438 -9.175781 C 9.082031 -9.175781 9.613281 -8.539062 9.613281 -7.265625 C 9.613281 -6.976562 9.574219 -6.597656 9.496094 -6.140625 L 8.738281 -2.046875 C 8.691406 -1.816406 8.667969 -1.632812 8.667969 -1.496094 C 8.667969 -1.140625 8.792969 -0.964844 9.035156 -0.964844 C 9.191406 -0.964844 9.363281 -1.035156 9.554688 -1.171875 C 9.746094 -1.3125 9.980469 -1.511719 10.253906 -1.769531 Z M 10.253906 -1.769531 "
             id="path89" />
        </g>
      </g>
    </g>
    <g
       fill="#3d3b3a"
       fill-opacity="1"
       id="g95">
      <g
         transform="translate(275.451501, 283.100489)"
         id="g94">
        <g
           id="g93">
          <path
             d="M 2.484375 0.253906 C 1.824219 0.253906 1.265625 0.105469 0.804688 -0.183594 C 0.34375 -0.476562 0.113281 -0.828125 0.113281 -1.242188 C 0.113281 -1.59375 0.214844 -1.867188 0.414062 -2.058594 C 0.613281 -2.25 0.859375 -2.34375 1.148438 -2.34375 C 1.410156 -2.34375 1.617188 -2.277344 1.769531 -2.136719 C 1.925781 -2 2.101562 -1.777344 2.300781 -1.472656 C 2.5 -1.148438 2.6875 -0.914062 2.863281 -0.757812 C 3.039062 -0.605469 3.28125 -0.527344 3.585938 -0.527344 C 3.847656 -0.527344 4.042969 -0.601562 4.171875 -0.746094 C 4.304688 -0.894531 4.390625 -1.125 4.4375 -1.449219 C 4.453125 -1.511719 4.460938 -1.601562 4.460938 -1.726562 C 4.460938 -2.167969 4.332031 -2.550781 4.070312 -2.875 C 3.808594 -3.195312 3.402344 -3.570312 2.851562 -4 C 2.300781 -4.460938 1.890625 -4.855469 1.621094 -5.183594 C 1.351562 -5.515625 1.21875 -5.910156 1.21875 -6.371094 C 1.21875 -6.460938 1.234375 -6.597656 1.265625 -6.785156 C 1.339844 -7.167969 1.535156 -7.535156 1.851562 -7.886719 C 2.164062 -8.238281 2.570312 -8.53125 3.070312 -8.761719 C 3.566406 -8.992188 4.109375 -9.105469 4.691406 -9.105469 C 5.425781 -9.105469 5.996094 -8.984375 6.402344 -8.738281 C 6.808594 -8.492188 6.992188 -8.15625 6.945312 -7.726562 C 6.898438 -7.433594 6.773438 -7.207031 6.566406 -7.035156 C 6.359375 -6.867188 6.140625 -6.785156 5.910156 -6.785156 C 5.585938 -6.785156 5.351562 -6.855469 5.195312 -7.003906 C 5.042969 -7.148438 4.90625 -7.359375 4.78125 -7.632812 C 4.644531 -7.910156 4.507812 -8.117188 4.367188 -8.253906 C 4.230469 -8.394531 4.007812 -8.460938 3.703125 -8.460938 C 3.457031 -8.460938 3.265625 -8.390625 3.128906 -8.242188 C 2.988281 -8.097656 2.90625 -7.933594 2.875 -7.75 C 2.859375 -7.6875 2.851562 -7.597656 2.851562 -7.472656 C 2.851562 -7.074219 2.980469 -6.722656 3.242188 -6.414062 C 3.503906 -6.109375 3.902344 -5.742188 4.4375 -5.3125 C 5.019531 -4.835938 5.449219 -4.425781 5.726562 -4.082031 C 6 -3.738281 6.140625 -3.335938 6.140625 -2.875 C 6.140625 -2.796875 6.125 -2.667969 6.09375 -2.484375 C 6.015625 -2.070312 5.816406 -1.652344 5.496094 -1.230469 C 5.175781 -0.808594 4.75 -0.457031 4.21875 -0.171875 C 3.691406 0.109375 3.113281 0.253906 2.484375 0.253906 Z M 2.484375 0.253906 "
             id="path92" />
        </g>
      </g>
    </g>
    <g
       fill="#3d3b3a"
       fill-opacity="1"
       id="g98">
      <g
         transform="translate(289.617066, 283.100489)"
         id="g97">
        <g
           id="g96">
          <path
             d="M 6.207031 -9.175781 C 6.792969 -9.175781 7.242188 -9.074219 7.566406 -8.875 C 7.886719 -8.675781 8.046875 -8.402344 8.046875 -8.046875 C 8.046875 -7.359375 7.539062 -6.710938 6.519531 -6.105469 C 5.5 -5.5 4.269531 -5.058594 2.828125 -4.78125 C 2.78125 -4.445312 2.757812 -4.117188 2.757812 -3.792969 C 2.757812 -2.875 2.949219 -2.132812 3.335938 -1.574219 C 3.71875 -1.015625 4.285156 -0.734375 5.035156 -0.734375 C 5.359375 -0.734375 5.707031 -0.792969 6.082031 -0.910156 C 6.457031 -1.023438 6.800781 -1.203125 7.105469 -1.449219 L 7.128906 -1.449219 C 7.175781 -1.449219 7.214844 -1.425781 7.253906 -1.378906 C 7.292969 -1.332031 7.296875 -1.296875 7.265625 -1.265625 C 6.714844 -0.726562 6.132812 -0.335938 5.519531 -0.09375 C 4.90625 0.152344 4.292969 0.277344 3.679688 0.277344 C 2.621094 0.277344 1.828125 -0.046875 1.300781 -0.691406 C 0.769531 -1.332031 0.507812 -2.144531 0.507812 -3.128906 C 0.507812 -3.464844 0.542969 -3.839844 0.621094 -4.253906 C 0.773438 -5.082031 1.117188 -5.871094 1.644531 -6.621094 C 2.171875 -7.375 2.835938 -7.988281 3.632812 -8.460938 C 4.429688 -8.9375 5.289062 -9.175781 6.207031 -9.175781 Z M 5.726562 -7.449219 C 5.742188 -7.511719 5.75 -7.605469 5.75 -7.726562 C 5.75 -7.988281 5.683594 -8.191406 5.554688 -8.335938 C 5.421875 -8.480469 5.242188 -8.554688 5.011719 -8.554688 C 4.523438 -8.554688 4.089844 -8.238281 3.714844 -7.613281 C 3.339844 -6.984375 3.058594 -6.164062 2.875 -5.152344 C 4.636719 -5.609375 5.585938 -6.378906 5.726562 -7.449219 Z M 5.726562 -7.449219 "
             id="path95" />
        </g>
      </g>
    </g>
    <g
       fill="#3d3b3a"
       fill-opacity="1"
       id="g101">
      <g
         transform="translate(304.72528, 283.100489)"
         id="g100">
        <g
           id="g99">
          <path
             d="M 2.160156 0.207031 C 1.425781 0.207031 1.058594 -0.230469 1.058594 -1.105469 C 1.058594 -1.410156 1.089844 -1.726562 1.148438 -2.046875 L 3.265625 -13.542969 C 3.3125 -13.851562 3.335938 -14.105469 3.335938 -14.304688 C 3.335938 -14.746094 3.1875 -14.96875 2.898438 -14.96875 C 2.714844 -14.96875 2.390625 -14.863281 1.929688 -14.648438 L 1.910156 -14.648438 C 1.832031 -14.648438 1.785156 -14.691406 1.769531 -14.773438 C 1.753906 -14.859375 1.777344 -14.910156 1.839844 -14.921875 L 5.402344 -16.671875 L 5.449219 -16.671875 C 5.511719 -16.671875 5.570312 -16.648438 5.621094 -16.601562 C 5.675781 -16.554688 5.695312 -16.519531 5.679688 -16.488281 L 3.105469 -2.046875 C 3.058594 -1.816406 3.035156 -1.625 3.035156 -1.472656 C 3.035156 -1.132812 3.148438 -0.964844 3.378906 -0.964844 C 3.535156 -0.964844 3.707031 -1.035156 3.898438 -1.171875 C 4.089844 -1.3125 4.324219 -1.511719 4.597656 -1.769531 C 4.628906 -1.800781 4.660156 -1.816406 4.691406 -1.816406 C 4.738281 -1.816406 4.773438 -1.789062 4.804688 -1.734375 C 4.835938 -1.683594 4.828125 -1.632812 4.78125 -1.585938 C 4.261719 -0.972656 3.800781 -0.519531 3.402344 -0.230469 C 3.003906 0.0625 2.589844 0.207031 2.160156 0.207031 Z M 2.160156 0.207031 "
             id="path98" />
        </g>
      </g>
    </g>
    <g
       fill="#3d3b3a"
       fill-opacity="1"
       id="g104">
      <g
         transform="translate(317.30435, 283.100489)"
         id="g103">
        <g
           id="g102">
          <path
             d="M 3.632812 0.320312 C 2.621094 0.320312 1.851562 -0.00390625 1.320312 -0.65625 C 0.792969 -1.308594 0.527344 -2.152344 0.527344 -3.195312 C 0.527344 -3.65625 0.566406 -4.070312 0.644531 -4.4375 C 0.8125 -5.359375 1.144531 -6.179688 1.644531 -6.898438 C 2.140625 -7.617188 2.742188 -8.179688 3.449219 -8.578125 C 4.15625 -8.976562 4.914062 -9.175781 5.726562 -9.175781 C 6.753906 -9.175781 7.539062 -8.863281 8.082031 -8.242188 C 8.628906 -7.621094 8.898438 -6.792969 8.898438 -5.75 C 8.898438 -5.335938 8.851562 -4.898438 8.761719 -4.4375 C 8.5625 -3.425781 8.199219 -2.5625 7.667969 -1.851562 C 7.140625 -1.136719 6.519531 -0.597656 5.804688 -0.230469 C 5.09375 0.136719 4.367188 0.320312 3.632812 0.320312 Z M 4.414062 -0.253906 C 4.90625 -0.253906 5.332031 -0.535156 5.691406 -1.105469 C 6.050781 -1.671875 6.316406 -2.445312 6.484375 -3.425781 C 6.59375 -4.023438 6.644531 -4.628906 6.644531 -5.242188 C 6.644531 -6.238281 6.496094 -7.050781 6.195312 -7.679688 C 5.898438 -8.308594 5.488281 -8.625 4.96875 -8.625 C 4.507812 -8.625 4.097656 -8.355469 3.738281 -7.816406 C 3.375 -7.28125 3.105469 -6.484375 2.921875 -5.425781 C 2.8125 -4.828125 2.757812 -4.222656 2.757812 -3.609375 C 2.757812 -2.613281 2.90625 -1.804688 3.195312 -1.183594 C 3.488281 -0.5625 3.894531 -0.253906 4.414062 -0.253906 Z M 4.414062 -0.253906 "
             id="path101" />
        </g>
      </g>
    </g>
    <g
       fill="#3d3b3a"
       fill-opacity="1"
       id="g107">
      <g
         transform="translate(333.585195, 283.100489)"
         id="g106">
        <g
           id="g105">
          <path
             d="M 6.828125 -9.082031 C 7.226562 -9.082031 7.609375 -8.9375 7.96875 -8.644531 C 8.328125 -8.355469 8.476562 -8.023438 8.417969 -7.65625 C 8.386719 -7.425781 8.277344 -7.210938 8.09375 -7.011719 C 7.910156 -6.8125 7.679688 -6.714844 7.40625 -6.714844 C 7.128906 -6.714844 6.828125 -6.84375 6.507812 -7.105469 C 6.398438 -7.183594 6.292969 -7.25 6.1875 -7.3125 C 6.078125 -7.375 5.972656 -7.40625 5.863281 -7.40625 C 5.601562 -7.40625 5.28125 -7 4.898438 -6.1875 C 4.515625 -5.375 4.152344 -4.402344 3.804688 -3.277344 C 3.460938 -2.148438 3.210938 -1.15625 3.058594 -0.300781 L 3.058594 -0.277344 C 3.027344 -0.136719 2.90625 -0.0273438 2.691406 0.0585938 C 2.476562 0.140625 2.167969 0.183594 1.769531 0.183594 C 1.265625 0.183594 1.011719 0.121094 1.011719 0 C 1.027344 -0.105469 1.078125 -0.335938 1.160156 -0.691406 C 1.246094 -1.042969 1.320312 -1.378906 1.378906 -1.703125 L 2.324219 -6.828125 C 2.351562 -7.074219 2.367188 -7.234375 2.367188 -7.3125 C 2.367188 -7.742188 2.230469 -7.957031 1.953125 -7.957031 C 1.648438 -7.957031 1.210938 -7.648438 0.644531 -7.035156 C 0.628906 -7.019531 0.605469 -7.011719 0.574219 -7.011719 C 0.511719 -7.011719 0.46875 -7.039062 0.4375 -7.09375 C 0.40625 -7.148438 0.414062 -7.199219 0.460938 -7.242188 C 1.011719 -7.886719 1.507812 -8.355469 1.941406 -8.644531 C 2.378906 -8.9375 2.820312 -9.082031 3.265625 -9.082031 C 3.648438 -9.082031 3.925781 -8.980469 4.09375 -8.773438 C 4.261719 -8.566406 4.347656 -8.261719 4.347656 -7.863281 C 4.347656 -7.632812 4.324219 -7.382812 4.277344 -7.105469 L 3.816406 -4.574219 C 4.722656 -7.582031 5.726562 -9.082031 6.828125 -9.082031 Z M 6.828125 -9.082031 "
             id="path104" />
        </g>
      </g>
    </g>
    <g
       fill="#3d3b3a"
       fill-opacity="1"
       id="g110">
      <g
         transform="translate(348.670429, 283.100489)"
         id="g109">
        <g
           id="g108">
          <path
             d="M 2.484375 0.253906 C 1.824219 0.253906 1.265625 0.105469 0.804688 -0.183594 C 0.34375 -0.476562 0.113281 -0.828125 0.113281 -1.242188 C 0.113281 -1.59375 0.214844 -1.867188 0.414062 -2.058594 C 0.613281 -2.25 0.859375 -2.34375 1.148438 -2.34375 C 1.410156 -2.34375 1.617188 -2.277344 1.769531 -2.136719 C 1.925781 -2 2.101562 -1.777344 2.300781 -1.472656 C 2.5 -1.148438 2.6875 -0.914062 2.863281 -0.757812 C 3.039062 -0.605469 3.28125 -0.527344 3.585938 -0.527344 C 3.847656 -0.527344 4.042969 -0.601562 4.171875 -0.746094 C 4.304688 -0.894531 4.390625 -1.125 4.4375 -1.449219 C 4.453125 -1.511719 4.460938 -1.601562 4.460938 -1.726562 C 4.460938 -2.167969 4.332031 -2.550781 4.070312 -2.875 C 3.808594 -3.195312 3.402344 -3.570312 2.851562 -4 C 2.300781 -4.460938 1.890625 -4.855469 1.621094 -5.183594 C 1.351562 -5.515625 1.21875 -5.910156 1.21875 -6.371094 C 1.21875 -6.460938 1.234375 -6.597656 1.265625 -6.785156 C 1.339844 -7.167969 1.535156 -7.535156 1.851562 -7.886719 C 2.164062 -8.238281 2.570312 -8.53125 3.070312 -8.761719 C 3.566406 -8.992188 4.109375 -9.105469 4.691406 -9.105469 C 5.425781 -9.105469 5.996094 -8.984375 6.402344 -8.738281 C 6.808594 -8.492188 6.992188 -8.15625 6.945312 -7.726562 C 6.898438 -7.433594 6.773438 -7.207031 6.566406 -7.035156 C 6.359375 -6.867188 6.140625 -6.785156 5.910156 -6.785156 C 5.585938 -6.785156 5.351562 -6.855469 5.195312 -7.003906 C 5.042969 -7.148438 4.90625 -7.359375 4.78125 -7.632812 C 4.644531 -7.910156 4.507812 -8.117188 4.367188 -8.253906 C 4.230469 -8.394531 4.007812 -8.460938 3.703125 -8.460938 C 3.457031 -8.460938 3.265625 -8.390625 3.128906 -8.242188 C 2.988281 -8.097656 2.90625 -7.933594 2.875 -7.75 C 2.859375 -7.6875 2.851562 -7.597656 2.851562 -7.472656 C 2.851562 -7.074219 2.980469 -6.722656 3.242188 -6.414062 C 3.503906 -6.109375 3.902344 -5.742188 4.4375 -5.3125 C 5.019531 -4.835938 5.449219 -4.425781 5.726562 -4.082031 C 6 -3.738281 6.140625 -3.335938 6.140625 -2.875 C 6.140625 -2.796875 6.125 -2.667969 6.09375 -2.484375 C 6.015625 -2.070312 5.816406 -1.652344 5.496094 -1.230469 C 5.175781 -0.808594 4.75 -0.457031 4.21875 -0.171875 C 3.691406 0.109375 3.113281 0.253906 2.484375 0.253906 Z M 2.484375 0.253906 "
             id="path107" />
        </g>
      </g>
    </g>
  </g>
</svg>
